<?xml version="1.0" encoding="utf-8" standalone="no"?>
<!DOCTYPE svg PUBLIC "-//W3C//DTD SVG 1.1//EN"
  "http://www.w3.org/Graphics/SVG/1.1/DTD/svg11.dtd">
<!-- Created with matplotlib (http://matplotlib.org/) -->
<svg height="288pt" version="1.1" viewBox="0 0 504 288" width="504pt" xmlns="http://www.w3.org/2000/svg" xmlns:xlink="http://www.w3.org/1999/xlink">
 <defs>
  <style type="text/css">
*{stroke-linecap:butt;stroke-linejoin:round;}
  </style>
 </defs>
 <g id="figure_1">
  <g id="patch_1">
   <path d="M 0 288 
L 504 288 
L 504 0 
L 0 0 
z
" style="fill:none;"/>
  </g>
  <g id="axes_1">
   <g id="patch_2">
    <path d="M 63 125.16 
L 167.508361 125.16 
L 167.508361 34.56 
L 63 34.56 
z
" style="fill:none;"/>
   </g>
   <g id="matplotlib.axis_1">
    <g id="xtick_1">
     <g id="line2d_1">
      <defs>
       <path d="M 0 0 
L 0 3.5 
" id="m3026d59af5" style="stroke:#000000;stroke-width:0.8;"/>
      </defs>
      <g>
       <use style="stroke:#000000;stroke-width:0.8;" x="71.55076" xlink:href="#m3026d59af5" y="125.16"/>
      </g>
     </g>
    </g>
    <g id="xtick_2">
     <g id="line2d_2">
      <g>
       <use style="stroke:#000000;stroke-width:0.8;" x="94.35304" xlink:href="#m3026d59af5" y="125.16"/>
      </g>
     </g>
    </g>
    <g id="xtick_3">
     <g id="line2d_3">
      <g>
       <use style="stroke:#000000;stroke-width:0.8;" x="117.155321" xlink:href="#m3026d59af5" y="125.16"/>
      </g>
     </g>
    </g>
    <g id="xtick_4">
     <g id="line2d_4">
      <g>
       <use style="stroke:#000000;stroke-width:0.8;" x="139.957601" xlink:href="#m3026d59af5" y="125.16"/>
      </g>
     </g>
    </g>
    <g id="xtick_5">
     <g id="line2d_5">
      <g>
       <use style="stroke:#000000;stroke-width:0.8;" x="162.759881" xlink:href="#m3026d59af5" y="125.16"/>
      </g>
     </g>
    </g>
   </g>
   <g id="matplotlib.axis_2"/>
   <g id="line2d_6">
    <path clip-path="url(#p73ac44c89d)" d="M 67.75038 102.51 
L 71.567862 102.408331 
L 72.440049 97.905265 
L 73.240029 94.868539 
L 73.962101 92.936284 
L 74.604365 91.803805 
L 75.164922 91.229926 
L 75.657071 91.021758 
L 76.120717 91.062288 
L 76.609066 91.337989 
L 77.165822 91.925245 
L 77.707376 92.449664 
L 79.721577 94.078844 
L 81.84979 95.514499 
L 84.124318 96.779704 
L 86.585064 97.892128 
L 89.285234 98.865932 
L 92.297035 99.711919 
L 95.721177 100.437821 
L 99.703976 101.048787 
L 104.479153 101.548794 
L 110.44955 101.940635 
L 117.159121 102.171325 
L 118.029408 97.690802 
L 118.829388 94.66334 
L 119.55146 92.738596 
L 120.191824 91.614945 
L 120.75238 91.044728 
L 121.24453 90.839653 
L 121.708176 90.882874 
L 122.196525 91.161321 
L 122.755181 91.753948 
L 123.323338 92.316096 
L 125.329938 93.961208 
L 127.44865 95.410981 
L 129.709876 96.68812 
L 132.155421 97.812064 
L 134.834689 98.795949 
L 137.819887 99.65152 
L 141.207926 100.386378 
L 145.141319 101.006007 
L 149.84619 101.514533 
L 155.704476 101.914514 
L 162.757981 102.189234 
L 162.757981 102.189234 
" style="fill:none;stroke:#8b008b;stroke-linecap:square;stroke-width:0.75;"/>
   </g>
   <g id="line2d_7">
    <path clip-path="url(#p73ac44c89d)" d="M 67.75038 102.51 
L 94.360641 102.600411 
L 94.983904 108.676629 
L 95.54636 112.182339 
L 96.034709 113.976 
L 96.435649 114.716232 
L 96.74728 114.895462 
L 97.017107 114.801324 
L 97.334439 114.423979 
L 97.75058 113.540535 
L 99.354341 109.66146 
L 100.376643 107.974739 
L 101.438849 106.642227 
L 102.563762 105.583498 
L 103.785584 104.738472 
L 105.155621 104.063975 
L 106.753681 103.530524 
L 108.712776 103.119459 
L 111.281833 102.82 
L 115.032808 102.625535 
L 121.860191 102.529165 
L 139.959501 102.532806 
L 140.584664 108.647154 
L 141.14712 112.164238 
L 141.635469 113.966092 
L 142.038309 114.714199 
L 142.34994 114.895389 
L 142.619767 114.802749 
L 142.935199 114.430104 
L 143.34754 113.560316 
L 144.995005 109.593669 
L 146.017307 107.922938 
L 147.081413 106.601011 
L 148.208226 105.551321 
L 149.433849 104.712938 
L 150.809586 104.043867 
L 152.417147 103.514803 
L 154.391444 103.107675 
L 156.989004 102.811734 
L 160.798885 102.620724 
L 162.757981 102.576125 
L 162.757981 102.576125 
" style="fill:none;stroke:#008b8b;stroke-linecap:square;stroke-width:0.75;"/>
   </g>
   <g id="line2d_8">
    <path clip-path="url(#p73ac44c89d)" d="M 63 102.51 
L 167.508361 102.51 
" style="fill:none;stroke:#000000;stroke-dasharray:2.2,2.2;stroke-dashoffset:0;stroke-width:0.5;"/>
   </g>
   <g id="patch_3">
    <path d="M 63 125.16 
L 63 34.56 
" style="fill:none;stroke:#000000;stroke-linecap:square;stroke-linejoin:miter;stroke-width:0.8;"/>
   </g>
   <g id="patch_4">
    <path d="M 63 125.16 
L 167.508361 125.16 
" style="fill:none;stroke:#000000;stroke-linecap:square;stroke-linejoin:miter;stroke-width:0.8;"/>
   </g>
  </g>
  <g id="axes_2">
   <g id="patch_5">
    <path d="M 63 252 
L 167.508361 252 
L 167.508361 161.4 
L 63 161.4 
z
" style="fill:none;"/>
   </g>
   <g id="matplotlib.axis_3">
    <g id="xtick_6">
     <g id="line2d_9">
      <g>
       <use style="stroke:#000000;stroke-width:0.8;" x="71.55076" xlink:href="#m3026d59af5" y="252"/>
      </g>
     </g>
     <g id="text_1">
      <!-- 0 -->
      <defs>
       <path d="M 4.15625 35.296875 
Q 4.15625 48 6.765625 55.734375 
Q 9.375 63.484375 14.515625 67.671875 
Q 19.671875 71.875 27.484375 71.875 
Q 33.25 71.875 37.59375 69.546875 
Q 41.9375 67.234375 44.765625 62.859375 
Q 47.609375 58.5 49.21875 52.21875 
Q 50.828125 45.953125 50.828125 35.296875 
Q 50.828125 22.703125 48.234375 14.96875 
Q 45.65625 7.234375 40.5 3 
Q 35.359375 -1.21875 27.484375 -1.21875 
Q 17.140625 -1.21875 11.234375 6.203125 
Q 4.15625 15.140625 4.15625 35.296875 
M 13.1875 35.296875 
Q 13.1875 17.671875 17.3125 11.828125 
Q 21.4375 6 27.484375 6 
Q 33.546875 6 37.671875 11.859375 
Q 41.796875 17.71875 41.796875 35.296875 
Q 41.796875 52.984375 37.671875 58.78125 
Q 33.546875 64.59375 27.390625 64.59375 
Q 21.34375 64.59375 17.71875 59.46875 
Q 13.1875 52.9375 13.1875 35.296875 
" id="ArialMT-30"/>
      </defs>
      <g transform="translate(69.940869 263.144373)scale(0.0579 -0.0579)">
       <use xlink:href="#ArialMT-30"/>
      </g>
     </g>
    </g>
    <g id="xtick_7">
     <g id="line2d_10">
      <g>
       <use style="stroke:#000000;stroke-width:0.8;" x="94.35304" xlink:href="#m3026d59af5" y="252"/>
      </g>
     </g>
     <g id="text_2">
      <!-- 12 -->
      <defs>
       <path d="M 37.25 0 
L 28.46875 0 
L 28.46875 56 
Q 25.296875 52.984375 20.140625 49.953125 
Q 14.984375 46.921875 10.890625 45.40625 
L 10.890625 53.90625 
Q 18.265625 57.375 23.78125 62.296875 
Q 29.296875 67.234375 31.59375 71.875 
L 37.25 71.875 
z
" id="ArialMT-31"/>
       <path d="M 50.34375 8.453125 
L 50.34375 0 
L 3.03125 0 
Q 2.9375 3.171875 4.046875 6.109375 
Q 5.859375 10.9375 9.828125 15.625 
Q 13.8125 20.3125 21.34375 26.46875 
Q 33.015625 36.03125 37.109375 41.625 
Q 41.21875 47.21875 41.21875 52.203125 
Q 41.21875 57.421875 37.46875 61 
Q 33.734375 64.59375 27.734375 64.59375 
Q 21.390625 64.59375 17.578125 60.78125 
Q 13.765625 56.984375 13.71875 50.25 
L 4.6875 51.171875 
Q 5.609375 61.28125 11.65625 66.578125 
Q 17.71875 71.875 27.9375 71.875 
Q 38.234375 71.875 44.234375 66.15625 
Q 50.25 60.453125 50.25 52 
Q 50.25 47.703125 48.484375 43.546875 
Q 46.734375 39.40625 42.65625 34.8125 
Q 38.578125 30.21875 29.109375 22.21875 
Q 21.1875 15.578125 18.9375 13.203125 
Q 16.703125 10.84375 15.234375 8.453125 
z
" id="ArialMT-32"/>
      </defs>
      <g transform="translate(91.133258 263.144373)scale(0.0579 -0.0579)">
       <use xlink:href="#ArialMT-31"/>
       <use x="55.615234" xlink:href="#ArialMT-32"/>
      </g>
     </g>
    </g>
    <g id="xtick_8">
     <g id="line2d_11">
      <g>
       <use style="stroke:#000000;stroke-width:0.8;" x="117.155321" xlink:href="#m3026d59af5" y="252"/>
      </g>
     </g>
     <g id="text_3">
      <!-- 24 -->
      <defs>
       <path d="M 32.328125 0 
L 32.328125 17.140625 
L 1.265625 17.140625 
L 1.265625 25.203125 
L 33.9375 71.578125 
L 41.109375 71.578125 
L 41.109375 25.203125 
L 50.78125 25.203125 
L 50.78125 17.140625 
L 41.109375 17.140625 
L 41.109375 0 
z
M 32.328125 25.203125 
L 32.328125 57.46875 
L 9.90625 25.203125 
z
" id="ArialMT-34"/>
      </defs>
      <g transform="translate(113.935538 263.144373)scale(0.0579 -0.0579)">
       <use xlink:href="#ArialMT-32"/>
       <use x="55.615234" xlink:href="#ArialMT-34"/>
      </g>
     </g>
    </g>
    <g id="xtick_9">
     <g id="line2d_12">
      <g>
       <use style="stroke:#000000;stroke-width:0.8;" x="139.957601" xlink:href="#m3026d59af5" y="252"/>
      </g>
     </g>
     <g id="text_4">
      <!-- 36 -->
      <defs>
       <path d="M 4.203125 18.890625 
L 12.984375 20.0625 
Q 14.5 12.59375 18.140625 9.296875 
Q 21.78125 6 27 6 
Q 33.203125 6 37.46875 10.296875 
Q 41.75 14.59375 41.75 20.953125 
Q 41.75 27 37.796875 30.921875 
Q 33.84375 34.859375 27.734375 34.859375 
Q 25.25 34.859375 21.53125 33.890625 
L 22.515625 41.609375 
Q 23.390625 41.5 23.921875 41.5 
Q 29.546875 41.5 34.03125 44.421875 
Q 38.53125 47.359375 38.53125 53.46875 
Q 38.53125 58.296875 35.25 61.46875 
Q 31.984375 64.65625 26.8125 64.65625 
Q 21.6875 64.65625 18.265625 61.421875 
Q 14.84375 58.203125 13.875 51.765625 
L 5.078125 53.328125 
Q 6.6875 62.15625 12.390625 67.015625 
Q 18.109375 71.875 26.609375 71.875 
Q 32.46875 71.875 37.390625 69.359375 
Q 42.328125 66.84375 44.9375 62.5 
Q 47.5625 58.15625 47.5625 53.265625 
Q 47.5625 48.640625 45.0625 44.828125 
Q 42.578125 41.015625 37.703125 38.765625 
Q 44.046875 37.3125 47.5625 32.6875 
Q 51.078125 28.078125 51.078125 21.140625 
Q 51.078125 11.765625 44.234375 5.25 
Q 37.40625 -1.265625 26.953125 -1.265625 
Q 17.53125 -1.265625 11.296875 4.34375 
Q 5.078125 9.96875 4.203125 18.890625 
" id="ArialMT-33"/>
       <path d="M 49.75 54.046875 
L 41.015625 53.375 
Q 39.84375 58.546875 37.703125 60.890625 
Q 34.125 64.65625 28.90625 64.65625 
Q 24.703125 64.65625 21.53125 62.3125 
Q 17.390625 59.28125 14.984375 53.46875 
Q 12.59375 47.65625 12.5 36.921875 
Q 15.671875 41.75 20.265625 44.09375 
Q 24.859375 46.4375 29.890625 46.4375 
Q 38.671875 46.4375 44.84375 39.96875 
Q 51.03125 33.5 51.03125 23.25 
Q 51.03125 16.5 48.125 10.71875 
Q 45.21875 4.9375 40.140625 1.859375 
Q 35.0625 -1.21875 28.609375 -1.21875 
Q 17.625 -1.21875 10.6875 6.859375 
Q 3.765625 14.9375 3.765625 33.5 
Q 3.765625 54.25 11.421875 63.671875 
Q 18.109375 71.875 29.4375 71.875 
Q 37.890625 71.875 43.28125 67.140625 
Q 48.6875 62.40625 49.75 54.046875 
M 13.875 23.1875 
Q 13.875 18.65625 15.796875 14.5 
Q 17.71875 10.359375 21.1875 8.171875 
Q 24.65625 6 28.46875 6 
Q 34.03125 6 38.03125 10.484375 
Q 42.046875 14.984375 42.046875 22.703125 
Q 42.046875 30.125 38.078125 34.390625 
Q 34.125 38.671875 28.125 38.671875 
Q 22.171875 38.671875 18.015625 34.390625 
Q 13.875 30.125 13.875 23.1875 
" id="ArialMT-36"/>
      </defs>
      <g transform="translate(136.737818 263.144373)scale(0.0579 -0.0579)">
       <use xlink:href="#ArialMT-33"/>
       <use x="55.615234" xlink:href="#ArialMT-36"/>
      </g>
     </g>
    </g>
    <g id="xtick_10">
     <g id="line2d_13">
      <g>
       <use style="stroke:#000000;stroke-width:0.8;" x="162.759881" xlink:href="#m3026d59af5" y="252"/>
      </g>
     </g>
     <g id="text_5">
      <!-- 48 -->
      <defs>
       <path d="M 17.671875 38.8125 
Q 12.203125 40.828125 9.5625 44.53125 
Q 6.9375 48.25 6.9375 53.421875 
Q 6.9375 61.234375 12.546875 66.546875 
Q 18.171875 71.875 27.484375 71.875 
Q 36.859375 71.875 42.578125 66.421875 
Q 48.296875 60.984375 48.296875 53.171875 
Q 48.296875 48.1875 45.671875 44.5 
Q 43.0625 40.828125 37.75 38.8125 
Q 44.34375 36.671875 47.78125 31.875 
Q 51.21875 27.09375 51.21875 20.453125 
Q 51.21875 11.28125 44.71875 5.03125 
Q 38.234375 -1.21875 27.640625 -1.21875 
Q 17.046875 -1.21875 10.546875 5.046875 
Q 4.046875 11.328125 4.046875 20.703125 
Q 4.046875 27.6875 7.59375 32.390625 
Q 11.140625 37.109375 17.671875 38.8125 
M 15.921875 53.71875 
Q 15.921875 48.640625 19.1875 45.40625 
Q 22.46875 42.1875 27.6875 42.1875 
Q 32.765625 42.1875 36.015625 45.375 
Q 39.265625 48.578125 39.265625 53.21875 
Q 39.265625 58.0625 35.90625 61.359375 
Q 32.5625 64.65625 27.59375 64.65625 
Q 22.5625 64.65625 19.234375 61.421875 
Q 15.921875 58.203125 15.921875 53.71875 
M 13.09375 20.65625 
Q 13.09375 16.890625 14.875 13.375 
Q 16.65625 9.859375 20.171875 7.921875 
Q 23.6875 6 27.734375 6 
Q 34.03125 6 38.125 10.046875 
Q 42.234375 14.109375 42.234375 20.359375 
Q 42.234375 26.703125 38.015625 30.859375 
Q 33.796875 35.015625 27.4375 35.015625 
Q 21.234375 35.015625 17.15625 30.90625 
Q 13.09375 26.8125 13.09375 20.65625 
" id="ArialMT-38"/>
      </defs>
      <g transform="translate(159.540099 263.144373)scale(0.0579 -0.0579)">
       <use xlink:href="#ArialMT-34"/>
       <use x="55.615234" xlink:href="#ArialMT-38"/>
      </g>
     </g>
    </g>
   </g>
   <g id="matplotlib.axis_4"/>
   <g id="line2d_14">
    <path clip-path="url(#pf062d063a3)" d="M 67.75038 229.35 
L 71.567862 229.248331 
L 72.440049 224.745265 
L 73.240029 221.708539 
L 73.962101 219.776284 
L 74.604365 218.643805 
L 75.164922 218.069926 
L 75.657071 217.861758 
L 76.120717 217.902288 
L 76.609066 218.177989 
L 77.165822 218.765245 
L 77.707376 219.289664 
L 79.721577 220.918844 
L 81.84979 222.354499 
L 84.124318 223.619704 
L 86.585064 224.732128 
L 89.285234 225.705932 
L 92.297035 226.551919 
L 94.364442 227.151419 
L 94.993404 233.381523 
L 95.561561 236.993127 
L 96.055611 238.85766 
L 96.464152 239.644847 
L 96.783383 239.847896 
L 97.055111 239.767385 
L 97.368642 239.413918 
L 97.779083 238.575312 
L 99.230828 235.214571 
L 100.232228 233.631341 
L 101.271632 232.394606 
L 102.371842 231.426347 
L 103.570862 230.66709 
L 104.921897 230.077949 
L 106.512356 229.633223 
L 108.494255 229.319645 
L 111.181123 229.134346 
L 115.488854 229.086511 
L 117.174323 228.98742 
L 118.04461 224.516216 
L 118.842689 221.5036 
L 119.564762 219.584916 
L 120.203226 218.469256 
L 120.761881 217.903806 
L 121.254031 217.700763 
L 121.717677 217.745958 
L 122.206026 218.026505 
L 122.764682 218.621545 
L 123.311936 219.158976 
L 125.328038 220.807478 
L 127.454351 222.258927 
L 129.721277 223.536361 
L 132.170622 224.659595 
L 134.855591 225.643379 
L 137.84459 226.497993 
L 139.970902 227.141106 
L 140.599865 233.36512 
L 141.168022 236.972494 
L 141.662071 238.834147 
L 142.070612 239.619407 
L 142.389844 239.821182 
L 142.661571 239.739735 
L 142.977003 239.382427 
L 143.389344 238.53621 
L 144.810686 235.237448 
L 145.812087 233.645213 
L 146.84959 232.403617 
L 147.9479 231.431143 
L 149.14312 230.66929 
L 150.488454 230.078173 
L 152.071312 229.631562 
L 154.04181 229.31629 
L 156.707776 229.129586 
L 160.962302 229.080582 
L 162.757981 229.095359 
L 162.757981 229.095359 
" style="fill:none;stroke:#000000;stroke-linecap:square;stroke-width:0.75;"/>
   </g>
   <g id="line2d_15">
    <path clip-path="url(#pf062d063a3)" d="M 63 229.35 
L 167.508361 229.35 
" style="fill:none;stroke:#000000;stroke-dasharray:2.2,2.2;stroke-dashoffset:0;stroke-width:0.5;"/>
   </g>
   <g id="patch_6">
    <path d="M 63 252 
L 63 161.4 
" style="fill:none;stroke:#000000;stroke-linecap:square;stroke-linejoin:miter;stroke-width:0.8;"/>
   </g>
   <g id="patch_7">
    <path d="M 63 252 
L 167.508361 252 
" style="fill:none;stroke:#000000;stroke-linecap:square;stroke-linejoin:miter;stroke-width:0.8;"/>
   </g>
  </g>
  <g id="axes_3">
   <g id="patch_8">
    <path d="M 184.49097 125.16 
L 262.872241 125.16 
L 262.872241 34.56 
L 184.49097 34.56 
z
" style="fill:none;"/>
   </g>
   <g id="matplotlib.axis_5">
    <g id="xtick_11">
     <g id="line2d_16">
      <g>
       <use style="stroke:#000000;stroke-width:0.8;" x="191.804154" xlink:href="#m3026d59af5" y="125.16"/>
      </g>
     </g>
    </g>
    <g id="xtick_12">
     <g id="line2d_17">
      <g>
       <use style="stroke:#000000;stroke-width:0.8;" x="214.306546" xlink:href="#m3026d59af5" y="125.16"/>
      </g>
     </g>
    </g>
    <g id="xtick_13">
     <g id="line2d_18">
      <g>
       <use style="stroke:#000000;stroke-width:0.8;" x="236.808939" xlink:href="#m3026d59af5" y="125.16"/>
      </g>
     </g>
    </g>
    <g id="xtick_14">
     <g id="line2d_19">
      <g>
       <use style="stroke:#000000;stroke-width:0.8;" x="259.311331" xlink:href="#m3026d59af5" y="125.16"/>
      </g>
     </g>
    </g>
   </g>
   <g id="matplotlib.axis_6"/>
   <g id="line2d_20">
    <path clip-path="url(#p8f556eabd6)" d="M 188.053755 102.51 
L 191.807904 102.419441 
L 192.668621 84.327106 
L 193.456204 72.13842 
L 194.161279 64.414511 
L 194.772594 59.937413 
L 195.284524 57.650287 
L 195.685816 56.728578 
L 195.978347 56.513254 
L 196.207122 56.601952 
L 196.4734 56.980472 
L 196.825938 57.920259 
L 197.281611 59.839777 
L 197.861048 62.200003 
L 199.511223 67.69902 
L 201.17265 72.477919 
L 202.847203 76.630973 
L 203.05535 77.105334 
L 203.066601 76.872047 
L 203.889814 62.140917 
L 204.634268 52.524349 
L 205.290588 46.689942 
L 205.849397 43.510151 
L 206.303195 42.053046 
L 206.644481 41.582223 
L 206.890133 41.56041 
L 207.130158 41.786102 
L 207.441441 42.429792 
L 207.848359 43.844302 
L 208.364039 46.520015 
L 209.271636 51.379395 
L 210.91056 58.310363 
L 212.55511 64.320908 
L 214.209036 69.541587 
L 214.306546 69.826078 
L 214.321548 69.529783 
L 215.131634 55.762679 
L 215.861086 46.870335 
L 216.500529 41.554169 
L 217.042462 38.713826 
L 217.477508 37.462823 
L 217.801918 37.092503 
L 218.038193 37.112337 
L 218.285719 37.385436 
L 218.610129 38.120625 
L 219.032049 39.689614 
L 219.56648 42.616723 
L 220.573462 48.361343 
L 222.210511 55.693619 
L 223.853186 62.053263 
L 225.503362 67.572299 
L 225.557742 67.740757 
L 225.567118 67.557986 
L 225.567118 67.557986 
L 226.373454 54.027321 
L 227.099156 45.305893 
L 227.734849 40.108906 
L 228.273031 37.345788 
L 228.704327 36.140946 
L 229.023111 35.795508 
L 229.257511 35.82441 
L 229.508787 36.112249 
L 229.835072 36.868532 
L 230.262618 38.485362 
L 230.8008 41.473655 
L 231.845286 47.532822 
L 233.482335 54.977288 
L 235.12501 61.43424 
L 236.775185 67.037721 
L 236.808939 67.143977 
L 236.814564 67.034688 
L 236.814564 67.034688 
L 237.6209 53.544981 
L 238.346602 44.855518 
L 238.982295 39.683747 
L 239.518602 36.948686 
L 239.948022 35.759176 
L 240.266806 35.419495 
L 240.501206 35.45251 
L 240.752483 35.744697 
L 241.082518 36.517805 
L 241.511939 38.156538 
L 242.051996 41.176539 
L 243.090856 47.23959 
L 244.72603 54.715797 
L 246.36683 61.201387 
L 248.01513 66.830688 
L 248.060135 66.973119 
L 248.067636 66.827621 
L 248.067636 66.827621 
L 248.873971 53.365332 
L 249.597798 44.716824 
L 250.231616 39.568352 
L 250.767923 36.837193 
L 251.197343 35.650233 
L 251.514252 35.31314 
L 251.748652 35.345757 
L 251.999929 35.637177 
L 252.329964 36.409432 
L 252.759384 38.046881 
L 253.299442 41.06535 
L 254.349553 47.197812 
L 255.984727 54.67967 
L 257.625527 61.170163 
L 259.273827 66.803719 
L 259.309456 66.91661 
L 259.309456 66.91661 
" style="fill:none;stroke:#8b008b;stroke-linecap:square;stroke-width:0.75;"/>
   </g>
   <g id="line2d_21">
    <path clip-path="url(#p8f556eabd6)" d="M 188.053755 102.51 
L 197.437253 102.600411 
L 198.057944 108.720889 
L 198.616753 112.227585 
L 199.100554 114.005641 
L 199.496221 114.728602 
L 199.801879 114.895933 
L 200.068157 114.794069 
L 200.385066 114.402282 
L 200.80136 113.49056 
L 202.290269 109.805929 
L 203.301001 108.082348 
L 204.349237 106.723596 
L 205.45748 105.645587 
L 206.657608 104.786903 
L 208.000251 104.101722 
L 208.680948 103.837525 
L 208.688449 103.9244 
L 209.303514 109.740595 
L 209.854823 113.038752 
L 210.331123 114.689294 
L 210.717415 115.338203 
L 211.017446 115.471129 
L 211.2856 115.344858 
L 211.610009 114.913838 
L 212.037555 113.933111 
L 213.526463 110.096504 
L 214.533445 108.310076 
L 215.576056 106.902379 
L 216.674923 105.786811 
L 217.860049 104.89899 
L 219.178314 104.190969 
L 219.932144 103.884886 
L 219.93777 103.949985 
L 220.552835 109.764457 
L 221.104144 113.06139 
L 221.580444 114.711044 
L 221.966736 115.359326 
L 222.264892 115.491919 
L 222.533046 115.36683 
L 222.857455 114.937067 
L 223.285001 113.957841 
L 224.792661 110.075395 
L 225.799643 108.293938 
L 226.842254 106.890158 
L 227.941121 105.777694 
L 229.126247 104.892343 
L 230.446387 104.185455 
L 231.18334 103.886556 
L 231.190841 103.973303 
L 231.805907 109.779851 
L 232.357215 113.071038 
L 232.831641 114.712005 
L 233.217932 115.360187 
L 233.516088 115.492728 
L 233.784242 115.367584 
L 234.108651 114.937755 
L 234.536197 113.958331 
L 236.040107 110.083284 
L 237.047089 108.299968 
L 238.0897 106.894725 
L 239.188567 105.781101 
L 240.373693 104.894827 
L 241.693833 104.187201 
L 242.434537 103.886616 
L 242.442037 103.973362 
L 243.057103 109.779909 
L 243.608411 113.071082 
L 244.082837 114.711996 
L 244.469128 115.360205 
L 244.767285 115.492748 
L 245.035438 115.367599 
L 245.359848 114.937774 
L 245.787393 113.958495 
L 247.293178 110.079592 
L 248.30016 108.297145 
L 249.342771 106.892587 
L 250.441638 105.779507 
L 251.626764 104.893664 
L 252.946904 104.186384 
L 253.685733 103.886631 
L 253.693234 103.973377 
L 254.308299 109.779809 
L 254.859608 113.071052 
L 255.334033 114.711964 
L 255.720324 115.360174 
L 256.018481 115.492677 
L 256.286634 115.367551 
L 256.611044 114.937727 
L 257.038589 113.958423 
L 258.544374 110.079585 
L 259.309456 108.682711 
L 259.309456 108.682711 
" style="fill:none;stroke:#008b8b;stroke-linecap:square;stroke-width:0.75;"/>
   </g>
   <g id="line2d_22">
    <path clip-path="url(#p8f556eabd6)" d="M 184.49097 102.51 
L 262.872241 102.51 
" style="fill:none;stroke:#000000;stroke-dasharray:2.2,2.2;stroke-dashoffset:0;stroke-width:0.5;"/>
   </g>
   <g id="patch_9">
    <path d="M 184.49097 125.16 
L 184.49097 34.56 
" style="fill:none;stroke:#000000;stroke-linecap:square;stroke-linejoin:miter;stroke-width:0.8;"/>
   </g>
   <g id="patch_10">
    <path d="M 184.49097 125.16 
L 262.872241 125.16 
" style="fill:none;stroke:#000000;stroke-linecap:square;stroke-linejoin:miter;stroke-width:0.8;"/>
   </g>
  </g>
  <g id="axes_4">
   <g id="patch_11">
    <path d="M 184.49097 252 
L 262.872241 252 
L 262.872241 161.4 
L 184.49097 161.4 
z
" style="fill:none;"/>
   </g>
   <g id="matplotlib.axis_7">
    <g id="xtick_15">
     <g id="line2d_23">
      <g>
       <use style="stroke:#000000;stroke-width:0.8;" x="191.804154" xlink:href="#m3026d59af5" y="252"/>
      </g>
     </g>
     <g id="text_6">
      <!-- 0 -->
      <g transform="translate(190.194262 263.144373)scale(0.0579 -0.0579)">
       <use xlink:href="#ArialMT-30"/>
      </g>
     </g>
    </g>
    <g id="xtick_16">
     <g id="line2d_24">
      <g>
       <use style="stroke:#000000;stroke-width:0.8;" x="214.306546" xlink:href="#m3026d59af5" y="252"/>
      </g>
     </g>
     <g id="text_7">
      <!-- 12 -->
      <g transform="translate(211.086763 263.144373)scale(0.0579 -0.0579)">
       <use xlink:href="#ArialMT-31"/>
       <use x="55.615234" xlink:href="#ArialMT-32"/>
      </g>
     </g>
    </g>
    <g id="xtick_17">
     <g id="line2d_25">
      <g>
       <use style="stroke:#000000;stroke-width:0.8;" x="236.808939" xlink:href="#m3026d59af5" y="252"/>
      </g>
     </g>
     <g id="text_8">
      <!-- 24 -->
      <g transform="translate(233.589156 263.144373)scale(0.0579 -0.0579)">
       <use xlink:href="#ArialMT-32"/>
       <use x="55.615234" xlink:href="#ArialMT-34"/>
      </g>
     </g>
    </g>
    <g id="xtick_18">
     <g id="line2d_26">
      <g>
       <use style="stroke:#000000;stroke-width:0.8;" x="259.311331" xlink:href="#m3026d59af5" y="252"/>
      </g>
     </g>
     <g id="text_9">
      <!-- 36 -->
      <g transform="translate(256.091548 263.144373)scale(0.0579 -0.0579)">
       <use xlink:href="#ArialMT-33"/>
       <use x="55.615234" xlink:href="#ArialMT-36"/>
      </g>
     </g>
    </g>
   </g>
   <g id="matplotlib.axis_8"/>
   <g id="line2d_27">
    <path clip-path="url(#p21b6bd9b26)" d="M 188.053755 229.35 
L 191.807904 229.259441 
L 192.668621 211.167106 
L 193.456204 198.97842 
L 194.161279 191.254511 
L 194.772594 186.777413 
L 195.284524 184.490287 
L 195.685816 183.568578 
L 195.978347 183.353254 
L 196.207122 183.441952 
L 196.4734 183.820472 
L 196.825938 184.760259 
L 197.281611 186.679777 
L 197.480382 188.254961 
L 198.174206 197.229887 
L 198.823025 202.949047 
L 199.413713 206.353177 
L 199.935018 208.188203 
L 200.37569 209.021323 
L 200.731978 209.279758 
L 201.03576 209.240683 
L 201.422051 209.172746 
L 202.187133 209.40667 
L 203.05535 209.894889 
L 203.064726 209.685567 
L 203.895439 193.651104 
L 204.649269 183.093924 
L 205.318716 176.585549 
L 205.894402 172.952635 
L 206.365077 171.230368 
L 206.725115 170.622622 
L 206.982017 170.546633 
L 207.214542 170.724704 
L 207.508948 171.274816 
L 207.895239 172.524495 
L 208.390292 174.956067 
L 208.729703 177.581211 
L 209.440404 187.184281 
L 210.10985 193.428043 
L 210.726791 197.259543 
L 211.278099 199.412222 
L 211.750649 200.460587 
L 212.138816 200.850214 
L 213.080166 201.447331 
L 214.139653 202.619859 
L 214.306546 202.827891 
L 214.314047 202.667242 
L 215.133509 187.518211 
L 215.876088 177.614634 
L 216.532408 171.589807 
L 217.093092 168.293412 
L 217.548766 166.777001 
L 217.891927 166.280603 
L 218.137578 166.249924 
L 218.373854 166.466639 
L 218.679511 167.092046 
L 219.080804 168.479311 
L 219.592733 171.131528 
L 219.979024 174.173902 
L 220.69535 184.049666 
L 221.370422 190.501873 
L 221.994864 194.502518 
L 222.555548 196.784064 
L 223.03935 197.922867 
L 223.440642 198.369082 
L 224.141967 198.91718 
L 225.229582 200.28515 
L 225.557742 200.750052 
L 225.565243 200.591462 
L 226.380955 185.714483 
L 227.119783 176.01038 
L 227.772353 170.127232 
L 228.327412 166.933537 
L 228.77746 165.476224 
L 229.116871 165.007097 
L 229.358771 164.988014 
L 229.598797 165.218489 
L 229.908205 165.869636 
L 230.315123 167.306269 
L 230.830803 170.022395 
L 231.23022 173.195718 
L 231.948422 183.153144 
L 232.625369 189.666571 
L 233.251685 193.713293 
L 233.814245 196.029199 
L 234.301797 197.196126 
L 234.70684 197.658927 
L 235.351909 198.192961 
L 236.452651 199.63054 
L 236.808939 200.153533 
L 236.816439 199.995534 
L 237.632151 185.179859 
L 238.369104 175.544765 
L 239.019799 169.707112 
L 239.574858 166.534498 
L 240.02303 165.097086 
L 240.360566 164.637657 
L 240.602467 164.622469 
L 240.842492 164.856967 
L 241.153775 165.518067 
L 241.560694 166.964043 
L 242.078249 169.703199 
L 242.481417 172.91525 
L 243.199618 182.890029 
L 243.87844 189.43352 
L 244.504757 193.488602 
L 245.069192 195.818099 
L 245.558619 196.992175 
L 245.963662 197.456716 
L 246.588103 197.98109 
L 247.69072 199.435237 
L 248.060135 199.982751 
L 248.067636 199.824926 
L 248.881472 185.055836 
L 249.618425 175.426825 
L 250.26912 169.593777 
L 250.822303 166.432922 
L 251.270476 164.993844 
L 251.608012 164.533577 
L 251.849913 164.517612 
L 252.089938 164.751345 
L 252.401221 165.411426 
L 252.810015 166.864059 
L 253.32757 169.605098 
L 253.730738 172.801363 
L 254.448939 182.790343 
L 255.127761 189.345389 
L 255.755953 193.41919 
L 256.320388 195.752056 
L 256.809815 196.928926 
L 257.214858 197.395746 
L 257.841175 197.925626 
L 258.947542 199.391142 
L 259.309456 199.929321 
L 259.309456 199.929321 
" style="fill:none;stroke:#000000;stroke-linecap:square;stroke-width:0.75;"/>
   </g>
   <g id="line2d_28">
    <path clip-path="url(#p21b6bd9b26)" d="M 184.49097 229.35 
L 262.872241 229.35 
" style="fill:none;stroke:#000000;stroke-dasharray:2.2,2.2;stroke-dashoffset:0;stroke-width:0.5;"/>
   </g>
   <g id="patch_12">
    <path d="M 184.49097 252 
L 184.49097 161.4 
" style="fill:none;stroke:#000000;stroke-linecap:square;stroke-linejoin:miter;stroke-width:0.8;"/>
   </g>
   <g id="patch_13">
    <path d="M 184.49097 252 
L 262.872241 252 
" style="fill:none;stroke:#000000;stroke-linecap:square;stroke-linejoin:miter;stroke-width:0.8;"/>
   </g>
  </g>
  <g id="axes_5">
   <g id="patch_14">
    <path d="M 279.854849 125.16 
L 358.23612 125.16 
L 358.23612 34.56 
L 279.854849 34.56 
z
" style="fill:none;"/>
   </g>
   <g id="matplotlib.axis_9">
    <g id="xtick_19">
     <g id="line2d_29">
      <g>
       <use style="stroke:#000000;stroke-width:0.8;" x="287.168033" xlink:href="#m3026d59af5" y="125.16"/>
      </g>
     </g>
    </g>
    <g id="xtick_20">
     <g id="line2d_30">
      <g>
       <use style="stroke:#000000;stroke-width:0.8;" x="309.670426" xlink:href="#m3026d59af5" y="125.16"/>
      </g>
     </g>
    </g>
    <g id="xtick_21">
     <g id="line2d_31">
      <g>
       <use style="stroke:#000000;stroke-width:0.8;" x="332.172818" xlink:href="#m3026d59af5" y="125.16"/>
      </g>
     </g>
    </g>
    <g id="xtick_22">
     <g id="line2d_32">
      <g>
       <use style="stroke:#000000;stroke-width:0.8;" x="354.675211" xlink:href="#m3026d59af5" y="125.16"/>
      </g>
     </g>
    </g>
   </g>
   <g id="matplotlib.axis_10"/>
   <g id="line2d_33">
    <path clip-path="url(#p2208eab7cb)" d="M 283.417635 102.51 
L 287.171784 102.419441 
L 288.0325 84.327106 
L 288.820084 72.13842 
L 289.525159 64.414511 
L 290.136474 59.937413 
L 290.648403 57.650287 
L 291.049696 56.728578 
L 291.342227 56.513254 
L 291.571001 56.601952 
L 291.83728 56.980472 
L 292.189817 57.920259 
L 292.645491 59.839777 
L 292.846137 61.419939 
L 293.67685 71.927347 
L 294.507564 79.747838 
L 295.340152 85.57979 
L 296.174616 89.925915 
L 297.014705 93.175043 
L 297.86417 95.608311 
L 298.419229 96.844285 
L 298.424855 96.712721 
L 299.278071 79.375988 
L 300.056279 67.779716 
L 300.750102 60.499389 
L 301.350166 56.322864 
L 301.848969 54.233221 
L 302.239011 53.417074 
L 302.520291 53.251283 
L 302.749065 53.367546 
L 303.024719 53.796571 
L 303.388508 54.82794 
L 303.855432 56.889835 
L 304.093583 58.736182 
L 304.924296 69.929871 
L 305.755009 78.26115 
L 306.587598 84.47401 
L 307.422062 89.103998 
L 308.260276 92.558707 
L 309.105991 95.142814 
L 309.670426 96.482277 
L 309.676051 96.350995 
L 310.529267 79.053018 
L 311.307475 67.488988 
L 312.001299 60.234801 
L 312.601362 56.079789 
L 313.09829 54.011574 
L 313.486456 53.206126 
L 313.765861 53.044102 
L 313.994635 53.161249 
L 314.27029 53.591189 
L 314.634078 54.623566 
L 315.102878 56.696732 
L 315.344779 58.570101 
L 316.175492 69.80626 
L 317.006206 78.169148 
L 317.838794 84.40558 
L 318.673258 89.053135 
L 319.511472 92.520951 
L 320.357187 95.114863 
L 320.921622 96.459408 
L 320.927248 96.32814 
L 321.780463 79.032606 
L 322.558671 67.470068 
L 323.252495 60.217077 
L 323.852559 56.062305 
L 324.351362 53.989853 
L 324.739528 53.188112 
L 325.018933 53.028584 
L 325.247707 53.147913 
L 325.523361 53.58065 
L 325.88715 54.616416 
L 326.35595 56.694047 
L 326.595975 58.558274 
L 327.426689 69.797457 
L 328.257402 78.162596 
L 329.08999 84.400707 
L 329.924454 89.049513 
L 330.762668 92.518262 
L 331.608383 95.112872 
L 332.172818 96.45778 
L 332.178444 96.326515 
L 333.031659 79.031155 
L 333.809867 67.468846 
L 334.503691 60.21624 
L 335.103755 56.062119 
L 335.600683 53.994958 
L 335.988849 53.190087 
L 336.268254 53.028191 
L 336.497028 53.145738 
L 336.772682 53.576211 
L 337.136471 54.609374 
L 337.603396 56.673613 
L 337.847171 58.557339 
L 338.677885 69.796761 
L 339.508598 78.162078 
L 340.341187 84.400322 
L 341.17565 89.049226 
L 342.013864 92.51805 
L 342.859579 95.112715 
L 343.424014 96.457651 
L 343.42964 96.326384 
L 344.282856 79.031043 
L 345.061063 67.468813 
L 345.754887 60.216006 
L 346.354951 56.061762 
L 346.851879 53.994669 
L 347.240045 53.189628 
L 347.51945 53.028311 
L 347.748224 53.146089 
L 348.025754 53.580605 
L 348.389542 54.616118 
L 348.856467 56.68346 
L 349.098368 58.557551 
L 349.929081 69.796919 
L 350.759794 78.162195 
L 351.592383 84.400409 
L 352.426847 89.049291 
L 353.265061 92.518098 
L 354.110776 95.11275 
L 354.673335 96.453644 
L 354.673335 96.453644 
" style="fill:none;stroke:#8b008b;stroke-linecap:square;stroke-width:0.75;"/>
   </g>
   <g id="line2d_34">
    <path clip-path="url(#p2208eab7cb)" d="M 283.417635 102.51 
L 292.801132 102.600411 
L 293.421823 108.720889 
L 293.980633 112.227585 
L 294.464434 114.005641 
L 294.860101 114.728602 
L 295.165759 114.895933 
L 295.432037 114.794069 
L 295.748946 114.402282 
L 296.16524 113.49056 
L 297.654148 109.805929 
L 298.664881 108.082348 
L 299.713117 106.723596 
L 300.82136 105.645587 
L 302.021487 104.786903 
L 303.36413 104.101722 
L 304.044828 103.837525 
L 304.052328 103.9244 
L 304.667394 109.740595 
L 305.218702 113.038752 
L 305.695003 114.689294 
L 306.081294 115.338203 
L 306.381326 115.471129 
L 306.64948 115.344858 
L 306.973889 114.913838 
L 307.401434 113.933111 
L 308.890343 110.096504 
L 309.897325 108.310076 
L 310.939936 106.902379 
L 312.038803 105.786811 
L 313.223929 104.89899 
L 314.542194 104.190969 
L 315.296024 103.884886 
L 315.301649 103.949985 
L 315.916715 109.764457 
L 316.468023 113.06139 
L 316.944324 114.711044 
L 317.330615 115.359326 
L 317.628772 115.491919 
L 317.896925 115.36683 
L 318.221335 114.937067 
L 318.64888 113.957841 
L 320.156541 110.075395 
L 321.163523 108.293938 
L 322.206133 106.890158 
L 323.305 105.777694 
L 324.490126 104.892343 
L 325.810267 104.185455 
L 326.54722 103.886556 
L 326.554721 103.973303 
L 327.169786 109.779851 
L 327.721095 113.071038 
L 328.19552 114.712005 
L 328.581811 115.360187 
L 328.879968 115.492728 
L 329.148122 115.367584 
L 329.472531 114.937755 
L 329.900076 113.958331 
L 331.403986 110.083284 
L 332.410968 108.299968 
L 333.453579 106.894725 
L 334.552446 105.781101 
L 335.737572 104.894827 
L 337.057712 104.187201 
L 337.798416 103.886616 
L 337.805917 103.973362 
L 338.420982 109.779909 
L 338.972291 113.071082 
L 339.446716 114.711996 
L 339.833008 115.360205 
L 340.131164 115.492748 
L 340.399318 115.367599 
L 340.723727 114.937774 
L 341.151273 113.958495 
L 342.657058 110.079592 
L 343.66404 108.297145 
L 344.706651 106.892587 
L 345.805518 105.779507 
L 346.990644 104.893664 
L 348.310784 104.186384 
L 349.049612 103.886631 
L 349.057113 103.973377 
L 349.672179 109.779809 
L 350.223487 113.071052 
L 350.697913 114.711964 
L 351.084204 115.360174 
L 351.38236 115.492677 
L 351.650514 115.367551 
L 351.974923 114.937727 
L 352.402469 113.958423 
L 353.908254 110.079585 
L 354.673335 108.682711 
L 354.673335 108.682711 
" style="fill:none;stroke:#008b8b;stroke-linecap:square;stroke-width:0.75;"/>
   </g>
   <g id="line2d_35">
    <path clip-path="url(#p2208eab7cb)" d="M 279.854849 102.51 
L 358.23612 102.51 
" style="fill:none;stroke:#000000;stroke-dasharray:2.2,2.2;stroke-dashoffset:0;stroke-width:0.5;"/>
   </g>
   <g id="patch_15">
    <path d="M 279.854849 125.16 
L 279.854849 34.56 
" style="fill:none;stroke:#000000;stroke-linecap:square;stroke-linejoin:miter;stroke-width:0.8;"/>
   </g>
   <g id="patch_16">
    <path d="M 279.854849 125.16 
L 358.23612 125.16 
" style="fill:none;stroke:#000000;stroke-linecap:square;stroke-linejoin:miter;stroke-width:0.8;"/>
   </g>
  </g>
  <g id="axes_6">
   <g id="patch_17">
    <path d="M 279.854849 252 
L 358.23612 252 
L 358.23612 161.4 
L 279.854849 161.4 
z
" style="fill:none;"/>
   </g>
   <g id="matplotlib.axis_11">
    <g id="xtick_23">
     <g id="line2d_36">
      <g>
       <use style="stroke:#000000;stroke-width:0.8;" x="287.168033" xlink:href="#m3026d59af5" y="252"/>
      </g>
     </g>
     <g id="text_10">
      <!-- 0 -->
      <g transform="translate(285.558142 263.144373)scale(0.0579 -0.0579)">
       <use xlink:href="#ArialMT-30"/>
      </g>
     </g>
    </g>
    <g id="xtick_24">
     <g id="line2d_37">
      <g>
       <use style="stroke:#000000;stroke-width:0.8;" x="309.670426" xlink:href="#m3026d59af5" y="252"/>
      </g>
     </g>
     <g id="text_11">
      <!-- 12 -->
      <g transform="translate(306.450643 263.144373)scale(0.0579 -0.0579)">
       <use xlink:href="#ArialMT-31"/>
       <use x="55.615234" xlink:href="#ArialMT-32"/>
      </g>
     </g>
    </g>
    <g id="xtick_25">
     <g id="line2d_38">
      <g>
       <use style="stroke:#000000;stroke-width:0.8;" x="332.172818" xlink:href="#m3026d59af5" y="252"/>
      </g>
     </g>
     <g id="text_12">
      <!-- 24 -->
      <g transform="translate(328.953035 263.144373)scale(0.0579 -0.0579)">
       <use xlink:href="#ArialMT-32"/>
       <use x="55.615234" xlink:href="#ArialMT-34"/>
      </g>
     </g>
    </g>
    <g id="xtick_26">
     <g id="line2d_39">
      <g>
       <use style="stroke:#000000;stroke-width:0.8;" x="354.675211" xlink:href="#m3026d59af5" y="252"/>
      </g>
     </g>
     <g id="text_13">
      <!-- 36 -->
      <g transform="translate(351.455428 263.144373)scale(0.0579 -0.0579)">
       <use xlink:href="#ArialMT-33"/>
       <use x="55.615234" xlink:href="#ArialMT-36"/>
      </g>
     </g>
    </g>
   </g>
   <g id="matplotlib.axis_12"/>
   <g id="line2d_40">
    <path clip-path="url(#p2e82f589a2)" d="M 283.417635 229.35 
L 287.171784 229.259441 
L 288.0325 211.167106 
L 288.820084 198.97842 
L 289.525159 191.254511 
L 290.136474 186.777413 
L 290.648403 184.490287 
L 291.049696 183.568578 
L 291.342227 183.353254 
L 291.571001 183.441952 
L 291.83728 183.820472 
L 292.189817 184.760259 
L 292.645491 186.679777 
L 292.816134 188.089277 
L 293.52871 204.129467 
L 294.203781 214.661488 
L 294.831973 221.254153 
L 295.400159 225.084809 
L 295.895211 227.072212 
L 296.30588 227.920457 
L 297.108465 228.75968 
L 297.909175 229.374157 
L 298.419229 229.633841 
L 298.421105 229.58699 
L 299.279946 210.912882 
L 300.06753 198.313107 
L 300.772605 190.325026 
L 301.38767 185.659531 
L 301.901475 183.273513 
L 302.308393 182.29315 
L 302.604674 182.057393 
L 302.833449 182.139491 
L 303.097852 182.510973 
L 303.446639 183.437362 
L 303.896687 185.331411 
L 304.06733 186.75263 
L 304.781781 203.127666 
L 305.458728 213.894285 
L 306.088795 220.649798 
L 306.660731 224.601748 
L 307.159534 226.664686 
L 307.573953 227.557104 
L 308.543431 228.673435 
L 309.344141 229.302794 
L 309.670426 229.484089 
L 309.674176 229.390382 
L 310.533017 210.723783 
L 311.318726 198.159596 
L 312.023801 190.17464 
L 312.638866 185.51386 
L 313.152671 183.131768 
L 313.557714 182.157835 
L 313.85212 181.922855 
L 314.079019 182.001731 
L 314.341547 182.365736 
L 314.688459 183.278553 
L 315.136632 185.15156 
L 315.318526 186.631973 
L 316.032977 203.034033 
L 316.709924 213.820691 
L 317.339991 220.590955 
L 317.911927 224.553693 
L 318.412605 226.630021 
L 318.827024 227.524827 
L 319.809629 228.664184 
L 320.610339 229.294551 
L 320.921622 229.468704 
L 320.925372 229.375 
L 321.784214 210.709329 
L 322.569922 198.145534 
L 323.274997 190.160881 
L 323.888187 185.510992 
L 324.401992 183.124954 
L 324.807035 182.14749 
L 325.103317 181.909837 
L 325.330216 181.98901 
L 325.592744 182.353562 
L 325.939655 183.266885 
L 326.387828 185.140868 
L 326.569722 186.621691 
L 327.284173 203.026051 
L 327.96112 213.814418 
L 328.591187 220.585985 
L 329.163123 224.549685 
L 329.663801 226.626702 
L 330.07822 227.521896 
L 331.060825 228.662117 
L 331.861535 229.293014 
L 332.172818 229.467335 
L 332.176569 229.373633 
L 333.03541 210.70808 
L 333.821118 198.144466 
L 334.526193 190.160197 
L 335.141259 185.499792 
L 335.655063 183.118348 
L 336.060106 182.144555 
L 336.354513 181.909596 
L 336.581412 181.988798 
L 336.84394 182.353172 
L 337.190852 183.266584 
L 337.639024 185.140224 
L 337.820919 186.620811 
L 338.53537 203.025394 
L 339.212317 213.813819 
L 339.842384 220.585541 
L 340.414319 224.549329 
L 340.914998 226.626427 
L 341.329417 227.521772 
L 342.310146 228.660186 
L 343.110856 229.291797 
L 343.424014 229.467282 
L 343.427765 229.373578 
L 344.286606 210.708034 
L 345.072315 198.144486 
L 345.77739 190.159988 
L 346.39058 185.510566 
L 346.904384 183.124341 
L 347.311303 182.144166 
L 347.605709 181.909901 
L 347.832608 181.989171 
L 348.095136 182.353516 
L 348.442048 183.266673 
L 348.890221 185.140259 
L 349.072115 186.621039 
L 349.786566 203.025454 
L 350.463513 213.813984 
L 351.09358 220.585612 
L 351.665516 224.549364 
L 352.166194 226.62642 
L 352.580613 227.521801 
L 353.561342 228.660221 
L 354.362052 229.291824 
L 354.673335 229.466356 
L 354.673335 229.466356 
" style="fill:none;stroke:#000000;stroke-linecap:square;stroke-width:0.75;"/>
   </g>
   <g id="line2d_41">
    <path clip-path="url(#p2e82f589a2)" d="M 279.854849 229.35 
L 358.23612 229.35 
" style="fill:none;stroke:#000000;stroke-dasharray:2.2,2.2;stroke-dashoffset:0;stroke-width:0.5;"/>
   </g>
   <g id="patch_18">
    <path d="M 279.854849 252 
L 279.854849 161.4 
" style="fill:none;stroke:#000000;stroke-linecap:square;stroke-linejoin:miter;stroke-width:0.8;"/>
   </g>
   <g id="patch_19">
    <path d="M 279.854849 252 
L 358.23612 252 
" style="fill:none;stroke:#000000;stroke-linecap:square;stroke-linejoin:miter;stroke-width:0.8;"/>
   </g>
  </g>
  <g id="axes_7">
   <g id="patch_20">
    <path d="M 375.218729 125.16 
L 453.6 125.16 
L 453.6 34.56 
L 375.218729 34.56 
z
" style="fill:none;"/>
   </g>
   <g id="matplotlib.axis_13">
    <g id="xtick_27">
     <g id="line2d_42">
      <g>
       <use style="stroke:#000000;stroke-width:0.8;" x="382.531913" xlink:href="#m3026d59af5" y="125.16"/>
      </g>
     </g>
    </g>
    <g id="xtick_28">
     <g id="line2d_43">
      <g>
       <use style="stroke:#000000;stroke-width:0.8;" x="405.034305" xlink:href="#m3026d59af5" y="125.16"/>
      </g>
     </g>
    </g>
    <g id="xtick_29">
     <g id="line2d_44">
      <g>
       <use style="stroke:#000000;stroke-width:0.8;" x="427.536698" xlink:href="#m3026d59af5" y="125.16"/>
      </g>
     </g>
    </g>
    <g id="xtick_30">
     <g id="line2d_45">
      <g>
       <use style="stroke:#000000;stroke-width:0.8;" x="450.03909" xlink:href="#m3026d59af5" y="125.16"/>
      </g>
     </g>
    </g>
   </g>
   <g id="matplotlib.axis_14"/>
   <g id="line2d_46">
    <path clip-path="url(#pdb86c7d541)" d="M 378.781514 102.51 
L 382.539414 102.41949 
L 383.402005 93.367823 
L 384.191464 87.275495 
L 384.898414 83.420413 
L 385.515355 81.180887 
L 386.034785 80.044001 
L 386.456705 79.590781 
L 386.799867 79.515626 
L 387.126151 79.676721 
L 387.506817 80.138166 
L 387.977492 81.09522 
L 388.210017 81.964992 
L 389.042605 87.228881 
L 389.878944 91.15924 
L 390.720909 94.095543 
L 391.574124 96.297161 
L 392.446092 97.953212 
L 393.349938 99.205502 
L 393.783109 99.677145 
L 393.792485 99.567575 
L 394.647576 90.893974 
L 395.427659 85.097961 
L 396.123358 81.464624 
L 396.729047 79.376038 
L 397.237226 78.335719 
L 397.64977 77.93755 
L 397.987306 77.893126 
L 398.319216 78.084683 
L 398.709258 78.594323 
L 399.189309 79.62158 
L 399.455587 80.608469 
L 400.288176 86.219917 
L 401.124515 90.409785 
L 401.964604 93.533981 
L 402.814069 95.873687 
L 403.680411 97.632872 
L 404.574881 98.961389 
L 405.034305 99.496135 
L 405.043681 99.386796 
L 405.896897 90.748911 
L 406.675105 84.975892 
L 407.370804 81.347955 
L 407.976493 79.263563 
L 408.484672 78.226138 
L 408.895341 77.831616 
L 409.232877 77.787998 
L 409.562912 77.978495 
L 409.951078 78.484171 
L 410.433004 79.513762 
L 410.706783 80.524063 
L 411.539372 86.157136 
L 412.375711 90.363152 
L 413.2158 93.499388 
L 414.065265 95.848112 
L 414.931608 97.614076 
L 415.826078 98.947713 
L 416.285502 99.484519 
L 416.294878 99.375195 
L 417.148093 90.738567 
L 417.928176 84.954636 
L 418.623875 81.331328 
L 419.229565 79.250776 
L 419.737744 78.216688 
L 420.148412 77.824142 
L 420.485948 77.78211 
L 420.817858 77.975854 
L 421.2079 78.487963 
L 421.691701 79.527471 
L 421.95798 80.518509 
L 422.790568 86.153005 
L 423.626907 90.360084 
L 424.466996 93.497112 
L 425.316462 95.846429 
L 426.182804 97.61284 
L 427.077274 98.946813 
L 427.536698 99.483755 
L 427.546074 99.374436 
L 428.399289 90.737862 
L 429.177497 84.966828 
L 429.875071 81.331802 
L 430.480761 79.251284 
L 430.98894 78.217134 
L 431.399608 77.824462 
L 431.737144 77.78235 
L 432.069055 77.976169 
L 432.459096 78.488212 
L 432.941022 79.523203 
L 433.209176 80.519176 
L 434.041764 86.153502 
L 434.878103 90.360452 
L 435.718193 93.497385 
L 436.567658 95.846631 
L 437.434 97.612988 
L 438.32847 98.946921 
L 438.787894 99.483848 
L 438.79727 99.374528 
L 439.650486 90.737944 
L 440.428693 84.966903 
L 441.126268 81.33199 
L 441.731957 79.251347 
L 442.240136 78.217207 
L 442.650805 77.824688 
L 442.988341 77.782558 
L 443.320251 77.976256 
L 443.710292 78.48829 
L 444.192219 79.523086 
L 444.460372 80.519 
L 445.292961 86.15337 
L 446.129299 90.360354 
L 446.969389 93.497313 
L 447.818854 95.846577 
L 448.685196 97.612949 
L 449.579666 98.946892 
L 450.037215 99.481806 
L 450.037215 99.481806 
" style="fill:none;stroke:#8b008b;stroke-linecap:square;stroke-width:0.75;"/>
   </g>
   <g id="line2d_47">
    <path clip-path="url(#pdb86c7d541)" d="M 378.781514 102.51 
L 388.165012 102.600411 
L 388.785703 108.720889 
L 389.344512 112.227585 
L 389.828314 114.005641 
L 390.223981 114.728602 
L 390.529638 114.895933 
L 390.795916 114.794069 
L 391.112825 114.402282 
L 391.529119 113.49056 
L 393.018028 109.805929 
L 394.02876 108.082348 
L 395.076997 106.723596 
L 396.185239 105.645587 
L 397.385367 104.786903 
L 398.72801 104.101722 
L 399.408707 103.837525 
L 399.416208 103.9244 
L 400.031273 109.740595 
L 400.582582 113.038752 
L 401.058883 114.689294 
L 401.445174 115.338203 
L 401.745206 115.471129 
L 402.013359 115.344858 
L 402.337769 114.913838 
L 402.765314 113.933111 
L 404.254222 110.096504 
L 405.261204 108.310076 
L 406.303815 106.902379 
L 407.402682 105.786811 
L 408.587808 104.89899 
L 409.906073 104.190969 
L 410.659903 103.884886 
L 410.665529 103.949985 
L 411.280594 109.764457 
L 411.831903 113.06139 
L 412.308204 114.711044 
L 412.694495 115.359326 
L 412.992651 115.491919 
L 413.260805 115.36683 
L 413.585214 114.937067 
L 414.01276 113.957841 
L 415.52042 110.075395 
L 416.527402 108.293938 
L 417.570013 106.890158 
L 418.66888 105.777694 
L 419.854006 104.892343 
L 421.174146 104.185455 
L 421.9111 103.886556 
L 421.9186 103.973303 
L 422.533666 109.779851 
L 423.084974 113.071038 
L 423.5594 114.712005 
L 423.945691 115.360187 
L 424.243848 115.492728 
L 424.512001 115.367584 
L 424.836411 114.937755 
L 425.263956 113.958331 
L 426.767866 110.083284 
L 427.774848 108.299968 
L 428.817459 106.894725 
L 429.916326 105.781101 
L 431.101452 104.894827 
L 432.421592 104.187201 
L 433.162296 103.886616 
L 433.169797 103.973362 
L 433.784862 109.779909 
L 434.336171 113.071082 
L 434.810596 114.711996 
L 435.196887 115.360205 
L 435.495044 115.492748 
L 435.763197 115.367599 
L 436.087607 114.937774 
L 436.515152 113.958495 
L 438.020937 110.079592 
L 439.027919 108.297145 
L 440.07053 106.892587 
L 441.169397 105.779507 
L 442.354523 104.893664 
L 443.674664 104.186384 
L 444.413492 103.886631 
L 444.420993 103.973377 
L 445.036058 109.779809 
L 445.587367 113.071052 
L 446.061792 114.711964 
L 446.448083 115.360174 
L 446.74624 115.492677 
L 447.014394 115.367551 
L 447.338803 114.937727 
L 447.766349 113.958423 
L 449.272134 110.079585 
L 450.037215 108.682711 
L 450.037215 108.682711 
" style="fill:none;stroke:#008b8b;stroke-linecap:square;stroke-width:0.75;"/>
   </g>
   <g id="line2d_48">
    <path clip-path="url(#pdb86c7d541)" d="M 375.218729 102.51 
L 453.6 102.51 
" style="fill:none;stroke:#000000;stroke-dasharray:2.2,2.2;stroke-dashoffset:0;stroke-width:0.5;"/>
   </g>
   <g id="patch_21">
    <path d="M 375.218729 125.16 
L 375.218729 34.56 
" style="fill:none;stroke:#000000;stroke-linecap:square;stroke-linejoin:miter;stroke-width:0.8;"/>
   </g>
   <g id="patch_22">
    <path d="M 375.218729 125.16 
L 453.6 125.16 
" style="fill:none;stroke:#000000;stroke-linecap:square;stroke-linejoin:miter;stroke-width:0.8;"/>
   </g>
  </g>
  <g id="axes_8">
   <g id="patch_23">
    <path d="M 375.218729 252 
L 453.6 252 
L 453.6 161.4 
L 375.218729 161.4 
z
" style="fill:none;"/>
   </g>
   <g id="matplotlib.axis_15">
    <g id="xtick_31">
     <g id="line2d_49">
      <g>
       <use style="stroke:#000000;stroke-width:0.8;" x="382.531913" xlink:href="#m3026d59af5" y="252"/>
      </g>
     </g>
     <g id="text_14">
      <!-- 0 -->
      <g transform="translate(380.922021 263.144373)scale(0.0579 -0.0579)">
       <use xlink:href="#ArialMT-30"/>
      </g>
     </g>
    </g>
    <g id="xtick_32">
     <g id="line2d_50">
      <g>
       <use style="stroke:#000000;stroke-width:0.8;" x="405.034305" xlink:href="#m3026d59af5" y="252"/>
      </g>
     </g>
     <g id="text_15">
      <!-- 12 -->
      <g transform="translate(401.814522 263.144373)scale(0.0579 -0.0579)">
       <use xlink:href="#ArialMT-31"/>
       <use x="55.615234" xlink:href="#ArialMT-32"/>
      </g>
     </g>
    </g>
    <g id="xtick_33">
     <g id="line2d_51">
      <g>
       <use style="stroke:#000000;stroke-width:0.8;" x="427.536698" xlink:href="#m3026d59af5" y="252"/>
      </g>
     </g>
     <g id="text_16">
      <!-- 24 -->
      <g transform="translate(424.316915 263.144373)scale(0.0579 -0.0579)">
       <use xlink:href="#ArialMT-32"/>
       <use x="55.615234" xlink:href="#ArialMT-34"/>
      </g>
     </g>
    </g>
    <g id="xtick_34">
     <g id="line2d_52">
      <g>
       <use style="stroke:#000000;stroke-width:0.8;" x="450.03909" xlink:href="#m3026d59af5" y="252"/>
      </g>
     </g>
     <g id="text_17">
      <!-- 36 -->
      <g transform="translate(446.819307 263.144373)scale(0.0579 -0.0579)">
       <use xlink:href="#ArialMT-33"/>
       <use x="55.615234" xlink:href="#ArialMT-36"/>
      </g>
     </g>
    </g>
   </g>
   <g id="matplotlib.axis_16"/>
   <g id="line2d_53">
    <path clip-path="url(#p30520fa90a)" d="M 378.781514 229.35 
L 382.539414 229.25949 
L 383.402005 220.207823 
L 384.191464 214.115495 
L 384.898414 210.260413 
L 385.515355 208.020887 
L 386.034785 206.884001 
L 386.456705 206.430781 
L 386.799867 206.355626 
L 387.126151 206.516721 
L 387.506817 206.978166 
L 387.977492 207.93522 
L 388.172513 208.709627 
L 388.851335 219.706839 
L 389.485152 226.638523 
L 390.060838 230.703636 
L 390.563392 232.83616 
L 390.981561 233.7686 
L 391.307846 234.038202 
L 391.575999 233.993483 
L 391.874156 233.689926 
L 392.155436 233.479812 
L 393.796235 232.292615 
L 394.660702 222.32863 
L 395.455787 215.572791 
L 396.172113 211.247267 
L 396.80218 208.687482 
L 397.336612 207.350892 
L 397.773533 206.785583 
L 398.124196 206.654233 
L 398.44298 206.771187 
L 398.804893 207.163904 
L 399.25119 208.00929 
L 399.421834 208.663354 
L 400.100656 219.674142 
L 400.734473 226.615892 
L 401.310159 230.68833 
L 401.814588 232.831954 
L 402.232757 233.764982 
L 402.559042 234.034984 
L 402.827196 233.990509 
L 403.125352 233.687226 
L 403.397256 233.490408 
L 405.045556 232.348322 
L 405.910023 222.354181 
L 406.705108 215.577301 
L 407.421434 211.237146 
L 408.051501 208.667017 
L 408.585933 207.323185 
L 409.022854 206.75349 
L 409.373517 206.619019 
L 409.692301 206.733475 
L 410.052339 207.121065 
L 410.496761 207.957967 
L 410.67303 208.625071 
L 411.351852 219.64404 
L 411.985669 226.591863 
L 412.561356 230.668732 
L 413.065784 232.815531 
L 413.483954 233.750815 
L 413.812114 234.022801 
L 414.080267 233.977873 
L 414.378424 233.674108 
L 414.646577 233.482363 
L 416.296753 232.344185 
L 417.16122 222.349782 
L 417.956304 215.572539 
L 418.67263 211.232532 
L 419.302697 208.662733 
L 419.839004 207.316008 
L 420.275926 206.748089 
L 420.626588 206.615181 
L 420.947247 206.732321 
L 421.309161 207.125544 
L 421.755458 207.971397 
L 421.924226 208.621113 
L 422.603048 219.640934 
L 423.236866 226.589381 
L 423.812552 230.666743 
L 424.31698 232.813927 
L 424.73515 233.749458 
L 425.06331 234.021558 
L 425.331463 233.976669 
L 425.62962 233.673046 
L 425.897773 233.481398 
L 427.547949 232.343687 
L 428.412416 222.349281 
L 429.205625 215.586761 
L 429.923827 211.233164 
L 430.553894 208.663376 
L 431.088325 207.319854 
L 431.525247 206.749927 
L 431.875909 206.615488 
L 432.196568 206.731361 
L 432.558482 207.123136 
L 433.004779 207.967715 
L 433.175422 208.621851 
L 433.854244 219.641509 
L 434.488062 226.589782 
L 435.063748 230.667103 
L 435.568177 232.814222 
L 435.986346 233.749698 
L 436.314506 234.021865 
L 436.582659 233.977043 
L 436.880816 233.673383 
L 437.14897 233.48168 
L 438.799145 232.343855 
L 439.663612 222.349422 
L 440.456821 215.586885 
L 441.175023 211.233345 
L 441.80509 208.663464 
L 442.339522 207.320057 
L 442.776443 206.750196 
L 443.127105 206.615666 
L 443.445889 206.730146 
L 443.807803 207.120471 
L 444.2541 207.963257 
L 444.426618 208.621684 
L 445.105441 219.64131 
L 445.739258 226.589709 
L 446.314944 230.666989 
L 446.819373 232.814092 
L 447.237542 233.749577 
L 447.565702 234.021732 
L 447.831981 233.978015 
L 448.130137 233.675995 
L 448.400166 233.481627 
L 450.037215 232.494517 
L 450.037215 232.494517 
" style="fill:none;stroke:#000000;stroke-linecap:square;stroke-width:0.75;"/>
   </g>
   <g id="line2d_54">
    <path clip-path="url(#p30520fa90a)" d="M 375.218729 229.35 
L 453.6 229.35 
" style="fill:none;stroke:#000000;stroke-dasharray:2.2,2.2;stroke-dashoffset:0;stroke-width:0.5;"/>
   </g>
   <g id="patch_24">
    <path d="M 375.218729 252 
L 375.218729 161.4 
" style="fill:none;stroke:#000000;stroke-linecap:square;stroke-linejoin:miter;stroke-width:0.8;"/>
   </g>
   <g id="patch_25">
    <path d="M 375.218729 252 
L 453.6 252 
" style="fill:none;stroke:#000000;stroke-linecap:square;stroke-linejoin:miter;stroke-width:0.8;"/>
   </g>
  </g>
 </g>
 <defs>
  <clipPath id="p73ac44c89d">
   <rect height="90.6" width="104.508361" x="63" y="34.56"/>
  </clipPath>
  <clipPath id="pf062d063a3">
   <rect height="90.6" width="104.508361" x="63" y="161.4"/>
  </clipPath>
  <clipPath id="p8f556eabd6">
   <rect height="90.6" width="78.381271" x="184.49097" y="34.56"/>
  </clipPath>
  <clipPath id="p21b6bd9b26">
   <rect height="90.6" width="78.381271" x="184.49097" y="161.4"/>
  </clipPath>
  <clipPath id="p2208eab7cb">
   <rect height="90.6" width="78.381271" x="279.854849" y="34.56"/>
  </clipPath>
  <clipPath id="p2e82f589a2">
   <rect height="90.6" width="78.381271" x="279.854849" y="161.4"/>
  </clipPath>
  <clipPath id="pdb86c7d541">
   <rect height="90.6" width="78.381271" x="375.218729" y="34.56"/>
  </clipPath>
  <clipPath id="p30520fa90a">
   <rect height="90.6" width="78.381271" x="375.218729" y="161.4"/>
  </clipPath>
 </defs>
</svg>
